{"title":"The Expendables R5 AC3 XViD - IMAGiNE","uid":5796148,"size":1483859187,"categoryP":"video","categoryS":"movies","magnet":"?xt=urn:btih:4b9eb79c4760e74ef35e5b0091c25e1138c39e32&amp;dn=The+Expendables+R5+AC3+XViD+-+IMAGiNE&amp;tr=udp%3A%2F%2Ftracker.openbittorrent.com%3A80&amp;tr=udp%3A%2F%2Fopen.demonii.com%3A1337&amp;tr=udp%3A%2F%2Ftracker.coppersurfer.tk%3A6969&amp;tr=udp%3A%2F%2Fexodus.desync.com%3A6969","seeders":0,"leechers":0,"uploader":"hiest","files":-1,"time":1283057477,"description":"Plot:\n\n \nBarney Ross leads the &quot;Expendables&quot;, a band of highly skilled mercenaries including knife enthusiast Lee Christmas, martial arts expert Yin Yang, heavy weapons specialist Hale Caesar, demolitionist Toll Road and loose-cannon sniper Gunner Jensen. When the group is commissioned by the mysterious Mr. Church to assassinate the merciless dictator of a small South American island, Barney and Lee head to the remote locale to scout out their opposition. Once there, they meet with local rebel Sandra and discover the true nature of the conflict engulfing the city. When they escape the island and Sandra stays behind, Ross must choose to either walk away and save his own life - or attempt a suicidal rescue mission that might just save his soul.\n\n\n \nMovie Info:\n &lt;a href=&quot;\nhttp://www.imdb.com/title/tt1320253/&quot; rel=&quot;nofollow&quot; target=&quot;_NEW&quot;&gt;\nhttp://www.imdb.com/title/tt1320253/&lt;/a&gt;\nMOVIEmeter: Up 450% in popularity this week. \nUser Rating:8.1/10 \nGenre:Action | Adventure | Thriller\n\n\n \n\n\n\nVideo\n\nFormat : MPEG-4 Visual\nFormat profile : Streaming Video@L1\nFormat settings, BVOP : Yes\nFormat settings, QPel : No\nFormat settings, GMC : No warppoints\nFormat settings, Matrix : Default\nMuxing mode : Packed bitstream\nCodec ID : XVID\nCodec ID/Hint : XviD\nDuration : 1h 39mn\nBit rate : 1 577 Kbps\nWidth : 704 pixels\nHeight : 304 pixels\nDisplay aspect ratio : 2.35\nFrame rate : 25.000 fps\nResolution : 24 bits\nColorimetry : 4:2:0\nScan type : Progressive\nBits/(Pixel*Frame) : 0.295\nStream size : 1.09 GiB (80%)\nWriting library : XviD 50\n\n\n\n\nAudio\n\nFormat : AC-3\nFormat/Info : Audio Coding 3\nCodec ID : 2000\nDuration : 1h 39mn\nBit rate mode : Constant\nBit rate : 384 Kbps\nChannel(s) : 2 channels\nChannel positions : L R\nSampling rate : 48.0 KHz\nStream size : 272 MiB (19%)\nAlignment : Aligned on interleaves\nInterleave, duration : 40 ms (1.00 video frame)\nInterleave, preload duration : 512 ms\n\n\n\n\nSOURCES:\n\nVIDEO:The Expendables DVD9 R5.... A Good Friend Thanks Mate \nAUDIO:The Expendables DVDR 2010-iND &amp; about 30 seconds from the R5 to fill the gap \n\n\n\n\nNOTES:\n\nIMAGiNE bringing you another release..... The Expendables\n\nHere we are with a nice R5 this time. Right first off we we're sent these \nfiles this morning and have been working on a few other projects so sorry \nfor the delay on getting this out. \nWork done on this one was we made some subs and hardcoded them for all non english parts....\nThen we made it brighter,lowered the chroma,slight change in rgb colours,white balance,sharpen,crop and resize.\nAudio is from the DVDSCR that was released by iND and about 30 seconds from the R5 beginning to make it full audio\nas the iND release was missing audio for that part.\n\nEnjoy folks\n\n\n\n\n\n\n\n---------------------------------- &lt;a href=&quot;\nhttp://thepiratebay.se/user/hiest&quot; rel=&quot;nofollow&quot; target=&quot;_NEW&quot;&gt;\nhttp://thepiratebay.se/user/hiest&lt;/a&gt;\n----------------------------------\n\n\n\n\n\n\n\n\nScreenshots:\n &lt;a href=&quot;\nhttp://postimg.com/image/21000/20616.jpg&quot; rel=&quot;nofollow&quot; target=&quot;_NEW&quot;&gt;\nhttp://postimg.com/image/21000/20616.jpg&lt;/a&gt;\n &lt;a href=&quot;\nhttp://postimg.com/image/21000/20617.jpg&quot; rel=&quot;nofollow&quot; target=&quot;_NEW&quot;&gt;\nhttp://postimg.com/image/21000/20617.jpg&lt;/a&gt;","torrent":{"xt":"urn:btih:4b9eb79c4760e74ef35e5b0091c25e1138c39e32","amp;dn":"The+Expendables+R5+AC3+XViD+-+IMAGiNE","amp;tr":["udp%3A%2F%2Ftracker.openbittorrent.com%3A80","udp%3A%2F%2Fopen.demonii.com%3A1337","udp%3A%2F%2Ftracker.coppersurfer.tk%3A6969","udp%3A%2F%2Fexodus.desync.com%3A6969"],"infoHash":"4b9eb79c4760e74ef35e5b0091c25e1138c39e32","infoHashBuffer":{"type":"Buffer","data":[75,158,183,156,71,96,231,78,243,94,91,0,145,194,94,17,56,195,158,50]},"announce":[],"urlList":[]}}